<svg width="43" height="32" viewBox="0 0 43 32" fill="none" xmlns="http://www.w3.org/2000/svg">
<g clip-path="url(#clip0_212_4917)">
<path d="M0 0H42.6667V32H0V0Z" fill="#003399"/>
<path d="M21.3332 5.09155L20.8591 6.6718L21.6493 6.82982L21.3332 5.09155Z" fill="#FFCC00"/>
<path d="M21.3332 5.09155L21.8073 6.6718L21.0171 6.82982L21.3332 5.09155Z" fill="#FFCC00"/>
<path d="M22.8362 6.18342L21.1868 6.22087L21.2807 7.02115L22.8362 6.18342Z" fill="#FFCC00"/>
<path d="M22.8362 6.18341L21.4798 7.1226L21.0853 6.41998L22.8362 6.18341Z" fill="#FFCC00"/>
<path d="M22.2621 7.95016L21.7168 6.39306L20.9847 6.72964L22.2621 7.95016Z" fill="#FFCC00"/>
<path d="M22.2621 7.95011L20.9497 6.95031L21.496 6.35805L22.2621 7.95011Z" fill="#FFCC00"/>
<path d="M19.8303 6.18342L21.4797 6.22087L21.3858 7.02115L19.8303 6.18342Z" fill="#FFCC00"/>
<path d="M19.8303 6.18341L21.1867 7.1226L21.5812 6.41998L19.8303 6.18341Z" fill="#FFCC00"/>
<path d="M20.4044 7.95016L20.9497 6.39306L21.6818 6.72964L20.4044 7.95016Z" fill="#FFCC00"/>
<path d="M20.4044 7.95011L21.7168 6.95031L21.1705 6.35805L20.4044 7.95011Z" fill="#FFCC00"/>
<path d="M21.3332 24.0546L20.8591 25.6348L21.6493 25.7928L21.3332 24.0546Z" fill="#FFCC00"/>
<path d="M21.3332 24.0546L21.8073 25.6348L21.0171 25.7928L21.3332 24.0546Z" fill="#FFCC00"/>
<path d="M22.8362 25.1465L21.1868 25.184L21.2807 25.9843L22.8362 25.1465Z" fill="#FFCC00"/>
<path d="M22.8362 25.1465L21.4798 26.0857L21.0853 25.3831L22.8362 25.1465Z" fill="#FFCC00"/>
<path d="M22.2621 26.9133L21.7168 25.3562L20.9847 25.6928L22.2621 26.9133Z" fill="#FFCC00"/>
<path d="M22.2621 26.9132L20.9497 25.9134L21.496 25.3212L22.2621 26.9132Z" fill="#FFCC00"/>
<path d="M19.8303 25.1465L21.4797 25.184L21.3858 25.9843L19.8303 25.1465Z" fill="#FFCC00"/>
<path d="M19.8303 25.1465L21.1867 26.0857L21.5812 25.3831L19.8303 25.1465Z" fill="#FFCC00"/>
<path d="M20.4044 26.9133L20.9497 25.3562L21.6818 25.6928L20.4044 26.9133Z" fill="#FFCC00"/>
<path d="M20.4044 26.9132L21.7168 25.9134L21.1705 25.3212L20.4044 26.9132Z" fill="#FFCC00"/>
<path d="M11.8518 14.573L11.3777 16.1532L12.1678 16.3113L11.8518 14.573Z" fill="#FFCC00"/>
<path d="M11.8517 14.573L12.3258 16.1532L11.5357 16.3113L11.8517 14.573Z" fill="#FFCC00"/>
<path d="M13.3547 15.665L11.7053 15.7024L11.7992 16.5027L13.3547 15.665Z" fill="#FFCC00"/>
<path d="M13.3547 15.665L11.9983 16.6042L11.6039 15.9015L13.3547 15.665Z" fill="#FFCC00"/>
<path d="M12.7807 17.4317L12.2353 15.8746L11.5032 16.2112L12.7807 17.4317Z" fill="#FFCC00"/>
<path d="M12.7806 17.4317L11.4682 16.4319L12.0146 15.8396L12.7806 17.4317Z" fill="#FFCC00"/>
<path d="M10.3489 15.665L11.9983 15.7024L11.9044 16.5027L10.3489 15.665Z" fill="#FFCC00"/>
<path d="M10.3489 15.665L11.7053 16.6042L12.0997 15.9015L10.3489 15.665Z" fill="#FFCC00"/>
<path d="M10.923 17.4317L11.4683 15.8746L12.2004 16.2112L10.923 17.4317Z" fill="#FFCC00"/>
<path d="M10.923 17.4317L12.2354 16.4319L11.689 15.8396L10.923 17.4317Z" fill="#FFCC00"/>
<path d="M15.78 9.29215L17.0924 8.29235L16.5461 7.70009L15.78 9.29215Z" fill="#FFCC00"/>
<path d="M15.78 9.2922L16.3253 7.7351L17.0574 8.07168L15.78 9.2922Z" fill="#FFCC00"/>
<path d="M15.2059 7.52533L16.5624 8.46452L16.9568 7.7619L15.2059 7.52533Z" fill="#FFCC00"/>
<path d="M15.2059 7.52533L16.8553 7.56279L16.7614 8.36307L15.2059 7.52533Z" fill="#FFCC00"/>
<path d="M16.7088 6.43335L16.2347 8.0136L17.0249 8.17162L16.7088 6.43335Z" fill="#FFCC00"/>
<path d="M16.7088 6.43335L17.1829 8.0136L16.3927 8.17162L16.7088 6.43335Z" fill="#FFCC00"/>
<path d="M17.6377 9.29202L16.3253 8.29223L16.8716 7.69996L17.6377 9.29202Z" fill="#FFCC00"/>
<path d="M17.6377 9.29208L17.0924 7.73498L16.3603 8.07156L17.6377 9.29208Z" fill="#FFCC00"/>
<path d="M18.2118 7.52533L16.8554 8.46452L16.4609 7.7619L18.2118 7.52533Z" fill="#FFCC00"/>
<path d="M18.2118 7.52533L16.5624 7.56279L16.6563 8.36307L18.2118 7.52533Z" fill="#FFCC00"/>
<path d="M14.1226 12.8072L13.5773 11.2501L12.8451 11.5867L14.1226 12.8072Z" fill="#FFCC00"/>
<path d="M14.1225 12.8072L12.8102 11.8074L13.3565 11.2151L14.1225 12.8072Z" fill="#FFCC00"/>
<path d="M12.2648 12.8073L13.5772 11.8075L13.0308 11.2152L12.2648 12.8073Z" fill="#FFCC00"/>
<path d="M12.2648 12.8073L12.8101 11.2502L13.5422 11.5868L12.2648 12.8073Z" fill="#FFCC00"/>
<path d="M11.6907 11.0406L13.0471 11.9798L13.4415 11.2772L11.6907 11.0406Z" fill="#FFCC00"/>
<path d="M11.6907 11.0406L13.3401 11.078L13.2462 11.8783L11.6907 11.0406Z" fill="#FFCC00"/>
<path d="M14.6965 11.0406L13.3401 11.9798L12.9457 11.2772L14.6965 11.0406Z" fill="#FFCC00"/>
<path d="M14.6965 11.0406L13.0471 11.078L13.141 11.8783L14.6965 11.0406Z" fill="#FFCC00"/>
<path d="M13.1937 9.94861L13.6677 11.5289L12.8776 11.6869L13.1937 9.94861Z" fill="#FFCC00"/>
<path d="M13.1937 9.94861L12.7196 11.5289L13.5097 11.6869L13.1937 9.94861Z" fill="#FFCC00"/>
<path d="M14.6983 20.5447L13.0489 20.5822L13.1427 21.3825L14.6983 20.5447Z" fill="#FFCC00"/>
<path d="M14.6982 20.5447L13.3418 21.4839L12.9474 20.7813L14.6982 20.5447Z" fill="#FFCC00"/>
<path d="M14.1243 22.3116L13.579 20.7545L12.8469 21.0911L14.1243 22.3116Z" fill="#FFCC00"/>
<path d="M14.1243 22.3116L12.8119 21.3118L13.3582 20.7195L14.1243 22.3116Z" fill="#FFCC00"/>
<path d="M12.2666 22.3116L13.579 21.3118L13.0327 20.7195L12.2666 22.3116Z" fill="#FFCC00"/>
<path d="M12.2666 22.3116L12.8119 20.7545L13.544 21.0911L12.2666 22.3116Z" fill="#FFCC00"/>
<path d="M13.1954 19.4528L13.6694 21.033L12.8793 21.191L13.1954 19.4528Z" fill="#FFCC00"/>
<path d="M13.1954 19.4528L12.7213 21.033L13.5114 21.191L13.1954 19.4528Z" fill="#FFCC00"/>
<path d="M11.6925 20.5447L13.3419 20.5822L13.248 21.3825L11.6925 20.5447Z" fill="#FFCC00"/>
<path d="M11.6925 20.5447L13.0489 21.4839L13.4434 20.7813L11.6925 20.5447Z" fill="#FFCC00"/>
<path d="M18.1279 23.7254L16.4785 23.7629L16.5724 24.5631L18.1279 23.7254Z" fill="#FFCC00"/>
<path d="M18.1279 23.7254L16.7715 24.6646L16.3771 23.962L18.1279 23.7254Z" fill="#FFCC00"/>
<path d="M17.554 25.4923L17.0087 23.9352L16.2765 24.2718L17.554 25.4923Z" fill="#FFCC00"/>
<path d="M17.5539 25.4922L16.2416 24.4924L16.7879 23.9002L17.5539 25.4922Z" fill="#FFCC00"/>
<path d="M15.6963 25.4922L17.0087 24.4924L16.4623 23.9002L15.6963 25.4922Z" fill="#FFCC00"/>
<path d="M15.6963 25.4923L16.2416 23.9352L16.9737 24.2718L15.6963 25.4923Z" fill="#FFCC00"/>
<path d="M16.625 22.6334L17.0991 24.2137L16.309 24.3717L16.625 22.6334Z" fill="#FFCC00"/>
<path d="M16.6251 22.6334L16.151 24.2137L16.9411 24.3717L16.6251 22.6334Z" fill="#FFCC00"/>
<path d="M15.1222 23.7254L16.7716 23.7629L16.6777 24.5631L15.1222 23.7254Z" fill="#FFCC00"/>
<path d="M15.1222 23.7254L16.4786 24.6646L16.8731 23.962L15.1222 23.7254Z" fill="#FFCC00"/>
<path d="M30.8147 14.573L31.2888 16.1532L30.4987 16.3113L30.8147 14.573Z" fill="#FFCC00"/>
<path d="M30.8148 14.573L30.3407 16.1532L31.1308 16.3113L30.8148 14.573Z" fill="#FFCC00"/>
<path d="M29.3118 15.665L30.9612 15.7024L30.8673 16.5027L29.3118 15.665Z" fill="#FFCC00"/>
<path d="M29.3118 15.665L30.6682 16.6042L31.0626 15.9015L29.3118 15.665Z" fill="#FFCC00"/>
<path d="M29.8859 17.4317L30.4312 15.8746L31.1633 16.2112L29.8859 17.4317Z" fill="#FFCC00"/>
<path d="M29.8859 17.4317L31.1983 16.4319L30.6519 15.8396L29.8859 17.4317Z" fill="#FFCC00"/>
<path d="M32.3176 15.665L30.6682 15.7024L30.7621 16.5027L32.3176 15.665Z" fill="#FFCC00"/>
<path d="M32.3176 15.665L30.9612 16.6042L30.5668 15.9015L32.3176 15.665Z" fill="#FFCC00"/>
<path d="M31.7435 17.4317L31.1982 15.8746L30.4661 16.2112L31.7435 17.4317Z" fill="#FFCC00"/>
<path d="M31.7435 17.4317L30.4311 16.4319L30.9775 15.8396L31.7435 17.4317Z" fill="#FFCC00"/>
<path d="M26.8865 9.29215L25.5741 8.29235L26.1204 7.70009L26.8865 9.29215Z" fill="#FFCC00"/>
<path d="M26.8865 9.2922L26.3412 7.7351L25.6091 8.07168L26.8865 9.2922Z" fill="#FFCC00"/>
<path d="M27.4606 7.52533L26.1042 8.46452L25.7097 7.7619L27.4606 7.52533Z" fill="#FFCC00"/>
<path d="M27.4606 7.52533L25.8112 7.56279L25.9051 8.36307L27.4606 7.52533Z" fill="#FFCC00"/>
<path d="M25.9577 6.43335L26.4318 8.0136L25.6416 8.17162L25.9577 6.43335Z" fill="#FFCC00"/>
<path d="M25.9577 6.43335L25.4836 8.0136L26.2738 8.17162L25.9577 6.43335Z" fill="#FFCC00"/>
<path d="M25.0288 9.29202L26.3412 8.29223L25.7949 7.69996L25.0288 9.29202Z" fill="#FFCC00"/>
<path d="M25.0288 9.29208L25.5741 7.73498L26.3062 8.07156L25.0288 9.29208Z" fill="#FFCC00"/>
<path d="M24.4547 7.52533L25.8111 8.46452L26.2056 7.7619L24.4547 7.52533Z" fill="#FFCC00"/>
<path d="M24.4547 7.52533L26.1041 7.56279L26.0102 8.36307L24.4547 7.52533Z" fill="#FFCC00"/>
<path d="M28.5439 12.8072L29.0892 11.2501L29.8214 11.5867L28.5439 12.8072Z" fill="#FFCC00"/>
<path d="M28.544 12.8072L29.8563 11.8074L29.31 11.2151L28.544 12.8072Z" fill="#FFCC00"/>
<path d="M30.4017 12.8073L29.0893 11.8075L29.6357 11.2152L30.4017 12.8073Z" fill="#FFCC00"/>
<path d="M30.4017 12.8073L29.8564 11.2502L29.1243 11.5868L30.4017 12.8073Z" fill="#FFCC00"/>
<path d="M30.9758 11.0406L29.6194 11.9798L29.225 11.2772L30.9758 11.0406Z" fill="#FFCC00"/>
<path d="M30.9758 11.0406L29.3264 11.078L29.4203 11.8783L30.9758 11.0406Z" fill="#FFCC00"/>
<path d="M27.97 11.0406L29.3264 11.9798L29.7208 11.2772L27.97 11.0406Z" fill="#FFCC00"/>
<path d="M27.97 11.0406L29.6194 11.078L29.5255 11.8783L27.97 11.0406Z" fill="#FFCC00"/>
<path d="M29.4729 9.94861L28.9988 11.5289L29.7889 11.6869L29.4729 9.94861Z" fill="#FFCC00"/>
<path d="M29.4728 9.94861L29.9469 11.5289L29.1568 11.6869L29.4728 9.94861Z" fill="#FFCC00"/>
<path d="M27.9682 20.5447L29.6177 20.5822L29.5238 21.3825L27.9682 20.5447Z" fill="#FFCC00"/>
<path d="M27.9683 20.5447L29.3247 21.4839L29.7191 20.7813L27.9683 20.5447Z" fill="#FFCC00"/>
<path d="M28.5422 22.3116L29.0875 20.7545L29.8196 21.0911L28.5422 22.3116Z" fill="#FFCC00"/>
<path d="M28.5422 22.3116L29.8546 21.3118L29.3083 20.7195L28.5422 22.3116Z" fill="#FFCC00"/>
<path d="M30.3999 22.3116L29.0875 21.3118L29.6339 20.7195L30.3999 22.3116Z" fill="#FFCC00"/>
<path d="M30.3999 22.3116L29.8546 20.7545L29.1225 21.0911L30.3999 22.3116Z" fill="#FFCC00"/>
<path d="M29.4711 19.4528L28.9971 21.033L29.7872 21.191L29.4711 19.4528Z" fill="#FFCC00"/>
<path d="M29.4711 19.4528L29.9452 21.033L29.1551 21.191L29.4711 19.4528Z" fill="#FFCC00"/>
<path d="M30.974 20.5447L29.3246 20.5822L29.4185 21.3825L30.974 20.5447Z" fill="#FFCC00"/>
<path d="M30.974 20.5447L29.6176 21.4839L29.2231 20.7813L30.974 20.5447Z" fill="#FFCC00"/>
<path d="M24.5386 23.7254L26.188 23.7629L26.0941 24.5631L24.5386 23.7254Z" fill="#FFCC00"/>
<path d="M24.5386 23.7254L25.895 24.6646L26.2894 23.962L24.5386 23.7254Z" fill="#FFCC00"/>
<path d="M25.1125 25.4923L25.6578 23.9352L26.39 24.2718L25.1125 25.4923Z" fill="#FFCC00"/>
<path d="M25.1126 25.4922L26.4249 24.4924L25.8786 23.9002L25.1126 25.4922Z" fill="#FFCC00"/>
<path d="M26.9702 25.4922L25.6578 24.4924L26.2042 23.9002L26.9702 25.4922Z" fill="#FFCC00"/>
<path d="M26.9702 25.4923L26.4249 23.9352L25.6928 24.2718L26.9702 25.4923Z" fill="#FFCC00"/>
<path d="M26.0415 22.6334L25.5674 24.2137L26.3575 24.3717L26.0415 22.6334Z" fill="#FFCC00"/>
<path d="M26.0414 22.6334L26.5155 24.2137L25.7254 24.3717L26.0414 22.6334Z" fill="#FFCC00"/>
<path d="M27.5443 23.7254L25.8949 23.7629L25.9888 24.5631L27.5443 23.7254Z" fill="#FFCC00"/>
<path d="M27.5443 23.7254L26.1879 24.6646L25.7934 23.962L27.5443 23.7254Z" fill="#FFCC00"/>
</g>
<defs>
<clipPath id="clip0_212_4917">
<rect width="42.6667" height="32" fill="white"/>
</clipPath>
</defs>
</svg>
